<?xml version="1.0" encoding="utf-8"?>
<svg xmlns="http://www.w3.org/2000/svg" style="margin: auto; background: rgb(241, 242, 243); display: block; shape-rendering: auto; animation-play-state: running; animation-delay: 0s;" width="277" height="133" preserveAspectRatio="xMidYMid">
<style type="text/css" style="animation-play-state: running; animation-delay: 0s;">
  text {
    text-anchor: middle; font-size: 28px; opacity: 0;
  }
</style>
<g style="transform-origin: 138.5px 66.5px; transform: scale(0.35); animation-play-state: running; animation-delay: 0s;">
<g transform="translate(138.5,66.5)" style="animation-play-state: running; animation-delay: 0s;">
  <g transform="translate(0,0)" style="animation-play-state: running; animation-delay: 0s;"><g class="path" style="transform: matrix(1, 0, 0, 1, 0, 0); transform-origin: -316.35px -5.09582px; animation: 1s linear -0.61875s infinite normal forwards running bounce-9587f312-4650-441f-a7d6-c6cb8ccf1c4f;"><path d="M57.46-42.30L57.46-42.30L50.78-39.49L50.78-39.49Q50-42.03 48.69-44.14L48.69-44.14L48.69-44.14Q47.38-46.25 45.57-47.75L45.57-47.75L45.57-47.75Q43.75-49.26 41.45-50.10L41.45-50.10L41.45-50.10Q39.14-50.94 36.41-50.94L36.41-50.94L36.41-50.94Q33.48-50.94 31.04-49.98L31.04-49.98L31.04-49.98Q28.59-49.02 26.66-47.34L26.66-47.34L26.66-47.34Q24.73-45.66 23.28-43.44L23.28-43.44L23.28-43.44Q21.84-41.21 20.86-38.69L20.86-38.69L20.86-38.69Q19.88-36.17 19.41-33.48L19.41-33.48L19.41-33.48Q18.95-30.78 18.95-28.20L18.95-28.20L18.95-28.20Q18.95-24.10 19.90-20.04L19.90-20.04L19.90-20.04Q20.86-15.98 22.95-12.73L22.95-12.73L22.95-12.73Q25.04-9.49 28.36-7.48L28.36-7.48L28.36-7.48Q31.68-5.47 36.41-5.47L36.41-5.47L36.41-5.47Q38.91-5.47 41.13-6.31L41.13-6.31L41.13-6.31Q43.36-7.15 45.18-8.61L45.18-8.61L45.18-8.61Q46.99-10.08 48.36-12.07L48.36-12.07L48.36-12.07Q49.73-14.06 50.55-16.37L50.55-16.37L57.30-13.67L57.30-13.67Q55.82-9.96 53.24-7.17L53.24-7.17L53.24-7.17Q50.66-4.38 47.36-2.54L47.36-2.54L47.36-2.54Q44.06-0.70 40.29 0.21L40.29 0.21L40.29 0.21Q36.52 1.13 32.70 1.13L32.70 1.13L32.70 1.13Q28.55 1.13 24.75 0.12L24.75 0.12L24.75 0.12Q20.94-0.90 17.66-2.77L17.66-2.77L17.66-2.77Q14.38-4.65 11.70-7.30L11.70-7.30L11.70-7.30Q9.02-9.96 7.13-13.20L7.13-13.20L7.13-13.20Q5.23-16.45 4.20-20.25L4.20-20.25L4.20-20.25Q3.16-24.06 3.16-28.20L3.16-28.20L3.16-28.20Q3.16-32.34 4.20-36.15L4.20-36.15L4.20-36.15Q5.23-39.96 7.13-43.22L7.13-43.22L7.13-43.22Q9.02-46.48 11.70-49.14L11.70-49.14L11.70-49.14Q14.38-51.80 17.66-53.67L17.66-53.67L17.66-53.67Q20.94-55.55 24.75-56.56L24.75-56.56L24.75-56.56Q28.55-57.58 32.70-57.58L32.70-57.58L32.70-57.58Q36.68-57.58 40.49-56.64L40.49-56.64L40.49-56.64Q44.30-55.70 47.58-53.81L47.58-53.81L47.58-53.81Q50.86-51.91 53.42-49.04L53.42-49.04L53.42-49.04Q55.98-46.17 57.46-42.30" fill="#f1a4bd" stroke="none" stroke-width="none" transform="translate(-346.65997314453125,23.129181900024413)" style="fill: rgb(241, 164, 189); animation-play-state: running; animation-delay: 0s;"></path></g><g class="path" style="transform: matrix(1, 0, 0, 1, 0, 0); transform-origin: -259.55px 0.474184px; animation: 1s linear -0.5775s infinite normal forwards running bounce-9587f312-4650-441f-a7d6-c6cb8ccf1c4f;"><path d="M111.09-45.12L111.09 0L97.89 0L97.89-5.39L97.89-5.39Q95.55-2.19 92.25-0.64L92.25-0.64L92.25-0.64Q88.95 0.90 85 0.90L85 0.90L85 0.90Q79.84 0.90 75.78-0.94L75.78-0.94L75.78-0.94Q71.72-2.77 68.91-5.96L68.91-5.96L68.91-5.96Q66.09-9.14 64.61-13.44L64.61-13.44L64.61-13.44Q63.13-17.73 63.13-22.66L63.13-22.66L63.13-22.66Q63.13-27.58 64.61-31.88L64.61-31.88L64.61-31.88Q66.09-36.17 68.91-39.36L68.91-39.36L68.91-39.36Q71.72-42.54 75.78-44.38L75.78-44.38L75.78-44.38Q79.84-46.21 85-46.21L85-46.21L85-46.21Q87.62-46.21 89.98-45.43L89.98-45.43L89.98-45.43Q92.34-44.65 94.32-43.22L94.32-43.22L94.32-43.22Q96.29-41.80 97.79-39.79L97.79-39.79L97.79-39.79Q99.30-37.77 100.16-35.31L100.16-35.31L106.02-45.12L111.09-45.12zM97.81-22.66L97.81-22.66L97.81-22.66Q97.81-24.41 97.64-26.37L97.64-26.37L97.64-26.37Q97.46-28.32 97.03-30.23L97.03-30.23L97.03-30.23Q96.60-32.15 95.84-33.89L95.84-33.89L95.84-33.89Q95.08-35.63 93.89-36.97L93.89-36.97L93.89-36.97Q92.70-38.32 91.02-39.10L91.02-39.10L91.02-39.10Q89.34-39.88 87.11-39.88L87.11-39.88L87.11-39.88Q84.88-39.88 83.24-39.08L83.24-39.08L83.24-39.08Q81.60-38.28 80.43-36.93L80.43-36.93L80.43-36.93Q79.26-35.59 78.50-33.83L78.50-33.83L78.50-33.83Q77.73-32.07 77.30-30.16L77.30-30.16L77.30-30.16Q76.88-28.24 76.70-26.31L76.70-26.31L76.70-26.31Q76.52-24.38 76.52-22.66L76.52-22.66L76.52-22.66Q76.52-20.94 76.70-18.98L76.70-18.98L76.70-18.98Q76.88-17.03 77.30-15.12L77.30-15.12L77.30-15.12Q77.73-13.20 78.50-11.45L78.50-11.45L78.50-11.45Q79.26-9.69 80.43-8.34L80.43-8.34L80.43-8.34Q81.60-6.99 83.24-6.19L83.24-6.19L83.24-6.19Q84.88-5.39 87.11-5.39L87.11-5.39L87.11-5.39Q89.14-5.39 90.72-6.23L90.72-6.23L90.72-6.23Q92.30-7.07 93.50-8.48L93.50-8.48L93.50-8.48Q94.69-9.88 95.51-11.68L95.51-11.68L95.51-11.68Q96.33-13.48 96.84-15.39L96.84-15.39L96.84-15.39Q97.34-17.30 97.58-19.20L97.58-19.20L97.58-19.20Q97.81-21.09 97.81-22.66" fill="#f1a4bd" stroke="none" stroke-width="none" transform="translate(-346.65997314453125,23.129181900024413)" style="fill: rgb(151, 52, 106); animation-play-state: running; animation-delay: 0s;"></path></g><g class="path" style="transform: matrix(1, 0, 0, 1, 0, 0); transform-origin: -202.4px -7.73082px; animation: 1s linear -0.53625s infinite normal forwards running bounce-9587f312-4650-441f-a7d6-c6cb8ccf1c4f;"><path d="M135.31-15.16L135.31 0L122.11 0L122.11-61.72L135.31-61.72L135.31-21.21L135.31-21.21Q138.55-23.55 141.70-26.37L141.70-26.37L141.70-26.37Q144.84-29.18 147.70-32.29L147.70-32.29L147.70-32.29Q150.55-35.39 152.99-38.63L152.99-38.63L152.99-38.63Q155.43-41.88 157.27-45.12L157.27-45.12L166.25-45.12L166.25-45.12Q163.52-40.51 159.77-35.92L159.77-35.92L159.77-35.92Q156.02-31.33 151.60-27.15L151.60-27.15L166.41 0L151.84 0L141.33-18.83L141.33-18.83Q138.40-16.84 135.31-15.16L135.31-15.16" fill="#f1a4bd" stroke="none" stroke-width="none" transform="translate(-346.65997314453125,23.129181900024413)" style="fill: rgb(241, 164, 189); animation-play-state: running; animation-delay: 0s;"></path></g><g class="path" style="transform: matrix(1, 0, 0, 1, 0, 0); transform-origin: -154.865px 0.474184px; animation: 1s linear -0.495s infinite normal forwards running bounce-9587f312-4650-441f-a7d6-c6cb8ccf1c4f;"><path d="M182.27-21.41L182.27-21.41L182.27-21.41Q184.69-20.86 187.11-20.55L187.11-20.55L187.11-20.55Q189.53-20.23 191.99-20.23L191.99-20.23L191.99-20.23Q194.57-20.23 196.78-20.72L196.78-20.72L196.78-20.72Q198.98-21.21 200.61-22.36L200.61-22.36L200.61-22.36Q202.23-23.52 203.16-25.43L203.16-25.43L203.16-25.43Q204.10-27.34 204.10-30.20L204.10-30.20L204.10-30.20Q204.10-32.50 203.48-34.41L203.48-34.41L203.48-34.41Q202.85-36.33 201.62-37.70L201.62-37.70L201.62-37.70Q200.39-39.06 198.59-39.82L198.59-39.82L198.59-39.82Q196.80-40.59 194.41-40.59L194.41-40.59L194.41-40.59Q192.19-40.59 190.41-39.77L190.41-39.77L190.41-39.77Q188.63-38.95 187.29-37.56L187.29-37.56L187.29-37.56Q185.94-36.17 184.98-34.34L184.98-34.34L184.98-34.34Q184.02-32.50 183.40-30.51L183.40-30.51L183.40-30.51Q182.77-28.52 182.50-26.48L182.50-26.48L182.50-26.48Q182.23-24.45 182.23-22.66L182.23-22.66L182.23-22.66Q182.23-22.34 182.23-22.03L182.23-22.03L182.23-22.03Q182.23-21.72 182.27-21.41zM214.80-30.31L214.80-30.31L214.80-30.31Q214.80-27.54 213.91-25.37L213.91-25.37L213.91-25.37Q213.01-23.20 211.46-21.56L211.46-21.56L211.46-21.56Q209.92-19.92 207.89-18.79L207.89-18.79L207.89-18.79Q205.86-17.66 203.55-16.93L203.55-16.93L203.55-16.93Q201.25-16.21 198.81-15.90L198.81-15.90L198.81-15.90Q196.37-15.59 194.06-15.59L194.06-15.59L194.06-15.59Q191.13-15.59 188.28-16.00L188.28-16.00L188.28-16.00Q185.43-16.41 182.66-17.30L182.66-17.30L182.66-17.30Q183.09-14.73 184.02-12.40L184.02-12.40L184.02-12.40Q184.96-10.08 186.52-8.34L186.52-8.34L186.52-8.34Q188.09-6.60 190.37-5.59L190.37-5.59L190.37-5.59Q192.66-4.57 195.78-4.57L195.78-4.57L195.78-4.57Q197.85-4.57 199.73-5.20L199.73-5.20L199.73-5.20Q201.60-5.82 203.16-6.95L203.16-6.95L203.16-6.95Q204.73-8.09 205.92-9.65L205.92-9.65L205.92-9.65Q207.11-11.21 207.85-13.13L207.85-13.13L213.55-11.02L213.55-11.02Q212.27-7.93 210.02-5.68L210.02-5.68L210.02-5.68Q207.77-3.44 204.94-1.97L204.94-1.97L204.94-1.97Q202.11-0.51 198.93 0.20L198.93 0.20L198.93 0.20Q195.74 0.90 192.62 0.90L192.62 0.90L192.62 0.90Q187.46 0.90 183.09-0.84L183.09-0.84L183.09-0.84Q178.71-2.58 175.55-5.70L175.55-5.70L175.55-5.70Q172.38-8.83 170.59-13.16L170.59-13.16L170.59-13.16Q168.79-17.50 168.79-22.66L168.79-22.66L168.79-22.66Q168.79-27.81 170.59-32.15L170.59-32.15L170.59-32.15Q172.38-36.48 175.55-39.61L175.55-39.61L175.55-39.61Q178.71-42.73 183.09-44.47L183.09-44.47L183.09-44.47Q187.46-46.21 192.62-46.21L192.62-46.21L192.62-46.21Q195.12-46.21 197.73-45.86L197.73-45.86L197.73-45.86Q200.35-45.51 202.81-44.75L202.81-44.75L202.81-44.75Q205.27-43.98 207.46-42.77L207.46-42.77L207.46-42.77Q209.65-41.56 211.27-39.79L211.27-39.79L211.27-39.79Q212.89-38.01 213.85-35.66L213.85-35.66L213.85-35.66Q214.80-33.32 214.80-30.31" fill="#f1a4bd" stroke="none" stroke-width="none" transform="translate(-346.65997314453125,23.129181900024413)" style="fill: rgb(151, 52, 106); animation-play-state: running; animation-delay: 0s;"></path></g><g class="path" style="transform: matrix(1, 0, 0, 1, 0, 0); transform-origin: -74.885px -4.99582px; animation: 1s linear -0.45375s infinite normal forwards running bounce-9587f312-4650-441f-a7d6-c6cb8ccf1c4f;"><path d="M262.07-21.02L262.07 0L246.56 0L246.56-56.25L276.95-56.25L276.95-56.25Q280.90-56.25 284.51-55.20L284.51-55.20L284.51-55.20Q288.13-54.14 290.90-52.01L290.90-52.01L290.90-52.01Q293.67-49.88 295.33-46.66L295.33-46.66L295.33-46.66Q296.99-43.44 296.99-39.10L296.99-39.10L296.99-39.10Q296.99-36.37 296.21-33.96L296.21-33.96L296.21-33.96Q295.43-31.56 294.04-29.57L294.04-29.57L294.04-29.57Q292.66-27.58 290.78-25.98L290.78-25.98L290.78-25.98Q288.91-24.38 286.68-23.28L286.68-23.28L286.68-23.28Q284.45-22.19 281.97-21.60L281.97-21.60L281.97-21.60Q279.49-21.02 276.95-21.02L276.95-21.02L262.07-21.02zM281.29-39.10L281.29-39.10L281.29-39.10Q281.29-44.53 278.54-47.64L278.54-47.64L278.54-47.64Q275.78-50.74 270.23-50.74L270.23-50.74L262.07-50.74L262.07-26.33L270.23-26.33L270.23-26.33Q273.20-26.33 275.29-27.29L275.29-27.29L275.29-27.29Q277.38-28.24 278.71-29.96L278.71-29.96L278.71-29.96Q280.04-31.68 280.66-34.00L280.66-34.00L280.66-34.00Q281.29-36.33 281.29-39.10" fill="#f1a4bd" stroke="none" stroke-width="none" transform="translate(-346.65997314453125,23.129181900024413)" style="fill: rgb(241, 164, 189); animation-play-state: running; animation-delay: 0s;"></path></g><g class="path" style="transform: matrix(1, 0, 0, 1, 0, 0); transform-origin: -21.855px 0.474184px; animation: 1s linear -0.4125s infinite normal forwards running bounce-9587f312-4650-441f-a7d6-c6cb8ccf1c4f;"><path d="M348.79-45.12L348.79 0L335.59 0L335.59-5.39L335.59-5.39Q333.24-2.19 329.94-0.64L329.94-0.64L329.94-0.64Q326.64 0.90 322.70 0.90L322.70 0.90L322.70 0.90Q317.54 0.90 313.48-0.94L313.48-0.94L313.48-0.94Q309.41-2.77 306.60-5.96L306.60-5.96L306.60-5.96Q303.79-9.14 302.30-13.44L302.30-13.44L302.30-13.44Q300.82-17.73 300.82-22.66L300.82-22.66L300.82-22.66Q300.82-27.58 302.30-31.88L302.30-31.88L302.30-31.88Q303.79-36.17 306.60-39.36L306.60-39.36L306.60-39.36Q309.41-42.54 313.48-44.38L313.48-44.38L313.48-44.38Q317.54-46.21 322.70-46.21L322.70-46.21L322.70-46.21Q325.31-46.21 327.68-45.43L327.68-45.43L327.68-45.43Q330.04-44.65 332.01-43.22L332.01-43.22L332.01-43.22Q333.98-41.80 335.49-39.79L335.49-39.79L335.49-39.79Q336.99-37.77 337.85-35.31L337.85-35.31L343.71-45.12L348.79-45.12zM335.51-22.66L335.51-22.66L335.51-22.66Q335.51-24.41 335.33-26.37L335.33-26.37L335.33-26.37Q335.16-28.32 334.73-30.23L334.73-30.23L334.73-30.23Q334.30-32.15 333.54-33.89L333.54-33.89L333.54-33.89Q332.77-35.63 331.58-36.97L331.58-36.97L331.58-36.97Q330.39-38.32 328.71-39.10L328.71-39.10L328.71-39.10Q327.03-39.88 324.80-39.88L324.80-39.88L324.80-39.88Q322.58-39.88 320.94-39.08L320.94-39.08L320.94-39.08Q319.30-38.28 318.13-36.93L318.13-36.93L318.13-36.93Q316.95-35.59 316.19-33.83L316.19-33.83L316.19-33.83Q315.43-32.07 315-30.16L315-30.16L315-30.16Q314.57-28.24 314.39-26.31L314.39-26.31L314.39-26.31Q314.22-24.38 314.22-22.66L314.22-22.66L314.22-22.66Q314.22-20.94 314.39-18.98L314.39-18.98L314.39-18.98Q314.57-17.03 315-15.12L315-15.12L315-15.12Q315.43-13.20 316.19-11.45L316.19-11.45L316.19-11.45Q316.95-9.69 318.13-8.34L318.13-8.34L318.13-8.34Q319.30-6.99 320.94-6.19L320.94-6.19L320.94-6.19Q322.58-5.39 324.80-5.39L324.80-5.39L324.80-5.39Q326.84-5.39 328.42-6.23L328.42-6.23L328.42-6.23Q330-7.07 331.19-8.48L331.19-8.48L331.19-8.48Q332.38-9.88 333.20-11.68L333.20-11.68L333.20-11.68Q334.02-13.48 334.53-15.39L334.53-15.39L334.53-15.39Q335.04-17.30 335.27-19.20L335.27-19.20L335.27-19.20Q335.51-21.09 335.51-22.66" fill="#f1a4bd" stroke="none" stroke-width="none" transform="translate(-346.65997314453125,23.129181900024413)" style="fill: rgb(151, 52, 106); animation-play-state: running; animation-delay: 0s;"></path></g><g class="path" style="transform: matrix(1, 0, 0, 1, 0, 0); transform-origin: 32.32px 0.0241833px; animation: 1s linear -0.37125s infinite normal forwards running bounce-9587f312-4650-441f-a7d6-c6cb8ccf1c4f;"><path d="M398.16-41.13L398.16-41.13L390.74-28.83L390.74-28.83Q390.27-30.39 389.53-32.34L389.53-32.34L389.53-32.34Q388.79-34.30 387.70-36.00L387.70-36.00L387.70-36.00Q386.60-37.70 385.08-38.85L385.08-38.85L385.08-38.85Q383.55-40 381.56-40L381.56-40L381.56-40Q379.73-40 378.38-39.06L378.38-39.06L378.38-39.06Q377.03-38.13 376.09-36.62L376.09-36.62L376.09-36.62Q375.16-35.12 374.55-33.22L374.55-33.22L374.55-33.22Q373.95-31.33 373.61-29.39L373.61-29.39L373.61-29.39Q373.28-27.46 373.16-25.68L373.16-25.68L373.16-25.68Q373.05-23.91 373.05-22.62L373.05-22.62L373.05 0L359.80 0L359.80-45.12L364.88-45.12L370.23-34.61L370.23-34.61Q371.33-37.15 372.73-39.28L372.73-39.28L372.73-39.28Q374.14-41.41 375.98-42.95L375.98-42.95L375.98-42.95Q377.81-44.49 380.14-45.35L380.14-45.35L380.14-45.35Q382.46-46.21 385.39-46.21L385.39-46.21L385.39-46.21Q386.91-46.21 388.79-45.96L388.79-45.96L388.79-45.96Q390.66-45.70 392.46-45.10L392.46-45.10L392.46-45.10Q394.26-44.49 395.78-43.52L395.78-43.52L395.78-43.52Q397.30-42.54 398.16-41.13" fill="#f1a4bd" stroke="none" stroke-width="none" transform="translate(-346.65997314453125,23.129181900024413)" style="fill: rgb(241, 164, 189); animation-play-state: running; animation-delay: 0s;"></path></g><g class="path" style="transform: matrix(1, 0, 0, 1, 0, 0); transform-origin: 77.555px 0.474184px; animation: 1s linear -0.33s infinite normal forwards running bounce-9587f312-4650-441f-a7d6-c6cb8ccf1c4f;"><path d="M448.20-45.12L448.20 0L435 0L435-5.39L435-5.39Q432.66-2.19 429.36-0.64L429.36-0.64L429.36-0.64Q426.05 0.90 422.11 0.90L422.11 0.90L422.11 0.90Q416.95 0.90 412.89-0.94L412.89-0.94L412.89-0.94Q408.83-2.77 406.02-5.96L406.02-5.96L406.02-5.96Q403.20-9.14 401.72-13.44L401.72-13.44L401.72-13.44Q400.23-17.73 400.23-22.66L400.23-22.66L400.23-22.66Q400.23-27.58 401.72-31.88L401.72-31.88L401.72-31.88Q403.20-36.17 406.02-39.36L406.02-39.36L406.02-39.36Q408.83-42.54 412.89-44.38L412.89-44.38L412.89-44.38Q416.95-46.21 422.11-46.21L422.11-46.21L422.11-46.21Q424.73-46.21 427.09-45.43L427.09-45.43L427.09-45.43Q429.45-44.65 431.43-43.22L431.43-43.22L431.43-43.22Q433.40-41.80 434.90-39.79L434.90-39.79L434.90-39.79Q436.41-37.77 437.27-35.31L437.27-35.31L443.13-45.12L448.20-45.12zM434.92-22.66L434.92-22.66L434.92-22.66Q434.92-24.41 434.75-26.37L434.75-26.37L434.75-26.37Q434.57-28.32 434.14-30.23L434.14-30.23L434.14-30.23Q433.71-32.15 432.95-33.89L432.95-33.89L432.95-33.89Q432.19-35.63 431.00-36.97L431.00-36.97L431.00-36.97Q429.80-38.32 428.13-39.10L428.13-39.10L428.13-39.10Q426.45-39.88 424.22-39.88L424.22-39.88L424.22-39.88Q421.99-39.88 420.35-39.08L420.35-39.08L420.35-39.08Q418.71-38.28 417.54-36.93L417.54-36.93L417.54-36.93Q416.37-35.59 415.61-33.83L415.61-33.83L415.61-33.83Q414.84-32.07 414.41-30.16L414.41-30.16L414.41-30.16Q413.98-28.24 413.81-26.31L413.81-26.31L413.81-26.31Q413.63-24.38 413.63-22.66L413.63-22.66L413.63-22.66Q413.63-20.94 413.81-18.98L413.81-18.98L413.81-18.98Q413.98-17.03 414.41-15.12L414.41-15.12L414.41-15.12Q414.84-13.20 415.61-11.45L415.61-11.45L415.61-11.45Q416.37-9.69 417.54-8.34L417.54-8.34L417.54-8.34Q418.71-6.99 420.35-6.19L420.35-6.19L420.35-6.19Q421.99-5.39 424.22-5.39L424.22-5.39L424.22-5.39Q426.25-5.39 427.83-6.23L427.83-6.23L427.83-6.23Q429.41-7.07 430.61-8.48L430.61-8.48L430.61-8.48Q431.80-9.88 432.62-11.68L432.62-11.68L432.62-11.68Q433.44-13.48 433.95-15.39L433.95-15.39L433.95-15.39Q434.45-17.30 434.69-19.20L434.69-19.20L434.69-19.20Q434.92-21.09 434.92-22.66" fill="#f1a4bd" stroke="none" stroke-width="none" transform="translate(-346.65997314453125,23.129181900024413)" style="fill: rgb(151, 52, 106); animation-play-state: running; animation-delay: 0s;"></path></g><g class="path" style="transform: matrix(1, 0, 0, 1, 0, 0); transform-origin: 134.045px -7.20582px; animation: 1s linear -0.28875s infinite normal forwards running bounce-9587f312-4650-441f-a7d6-c6cb8ccf1c4f;"><path d="M504.69-61.72L504.69 0L499.61 0L493.75-9.80L493.75-9.80Q492.89-7.34 491.39-5.35L491.39-5.35L491.39-5.35Q489.88-3.36 487.91-1.93L487.91-1.93L487.91-1.93Q485.94-0.51 483.57 0.27L483.57 0.27L483.57 0.27Q481.21 1.05 478.59 1.05L478.59 1.05L478.59 1.05Q473.44 1.05 469.38-0.78L469.38-0.78L469.38-0.78Q465.31-2.62 462.50-5.80L462.50-5.80L462.50-5.80Q459.69-8.98 458.20-13.28L458.20-13.28L458.20-13.28Q456.72-17.58 456.72-22.50L456.72-22.50L456.72-22.50Q456.72-27.42 458.20-31.72L458.20-31.72L458.20-31.72Q459.69-36.02 462.50-39.18L462.50-39.18L462.50-39.18Q465.31-42.34 469.38-44.18L469.38-44.18L469.38-44.18Q473.44-46.02 478.59-46.02L478.59-46.02L478.59-46.02Q482.54-46.02 485.84-44.49L485.84-44.49L485.84-44.49Q489.14-42.97 491.48-39.73L491.48-39.73L491.48-61.72L504.69-61.72zM491.41-22.50L491.41-22.50L491.41-22.50Q491.41-24.06 491.17-25.94L491.17-25.94L491.17-25.94Q490.94-27.81 490.43-29.73L490.43-29.73L490.43-29.73Q489.92-31.64 489.10-33.44L489.10-33.44L489.10-33.44Q488.28-35.23 487.09-36.64L487.09-36.64L487.09-36.64Q485.90-38.05 484.32-38.89L484.32-38.89L484.32-38.89Q482.73-39.73 480.70-39.73L480.70-39.73L480.70-39.73Q478.48-39.73 476.84-38.93L476.84-38.93L476.84-38.93Q475.20-38.13 474.02-36.78L474.02-36.78L474.02-36.78Q472.85-35.43 472.09-33.67L472.09-33.67L472.09-33.67Q471.33-31.91 470.90-30L470.90-30L470.90-30Q470.47-28.09 470.29-26.15L470.29-26.15L470.29-26.15Q470.12-24.22 470.12-22.50L470.12-22.50L470.12-22.50Q470.12-20.78 470.29-18.85L470.29-18.85L470.29-18.85Q470.47-16.91 470.90-15L470.90-15L470.90-15Q471.33-13.09 472.09-11.31L472.09-11.31L472.09-11.31Q472.85-9.53 474.02-8.18L474.02-8.18L474.02-8.18Q475.20-6.84 476.84-6.04L476.84-6.04L476.84-6.04Q478.48-5.23 480.70-5.23L480.70-5.23L480.70-5.23Q482.93-5.23 484.61-6.02L484.61-6.02L484.61-6.02Q486.29-6.80 487.48-8.14L487.48-8.14L487.48-8.14Q488.67-9.49 489.43-11.23L489.43-11.23L489.43-11.23Q490.20-12.97 490.63-14.90L490.63-14.90L490.63-14.90Q491.05-16.84 491.23-18.79L491.23-18.79L491.23-18.79Q491.41-20.74 491.41-22.50" fill="#f1a4bd" stroke="none" stroke-width="none" transform="translate(-346.65997314453125,23.129181900024413)" style="fill: rgb(241, 164, 189); animation-play-state: running; animation-delay: 0s;"></path></g><g class="path" style="transform: matrix(1, 0, 0, 1, 0, 0); transform-origin: 175.705px -32.8658px; animation: 1s linear -0.2475s infinite normal forwards running bounce-9587f312-4650-441f-a7d6-c6cb8ccf1c4f;"><path d="M529.57-56.02L529.57-56.02L529.57-56.02Q529.57-54.53 529.00-53.20L529.00-53.20L529.00-53.20Q528.44-51.88 527.46-50.90L527.46-50.90L527.46-50.90Q526.48-49.92 525.16-49.36L525.16-49.36L525.16-49.36Q523.83-48.79 522.34-48.79L522.34-48.79L522.34-48.79Q520.86-48.79 519.55-49.36L519.55-49.36L519.55-49.36Q518.24-49.92 517.27-50.90L517.27-50.90L517.27-50.90Q516.29-51.88 515.72-53.20L515.72-53.20L515.72-53.20Q515.16-54.53 515.16-56.02L515.16-56.02L515.16-56.02Q515.16-57.50 515.72-58.81L515.72-58.81L515.72-58.81Q516.29-60.12 517.27-61.09L517.27-61.09L517.27-61.09Q518.24-62.07 519.55-62.64L519.55-62.64L519.55-62.64Q520.86-63.20 522.34-63.20L522.34-63.20L522.34-63.20Q523.83-63.20 525.16-62.64L525.16-62.64L525.16-62.64Q526.48-62.07 527.46-61.09L527.46-61.09L527.46-61.09Q528.44-60.12 529.00-58.81L529.00-58.81L529.00-58.81Q529.57-57.50 529.57-56.02" fill="#f1a4bd" stroke="none" stroke-width="none" transform="translate(-346.65997314453125,23.129181900024413)" style="fill: rgb(151, 52, 106); animation-play-state: running; animation-delay: 0s;"></path></g><g class="path" style="transform: matrix(1, 0, 0, 1, 0, 0); transform-origin: 175.7px 0.589182px; animation: 1s linear -0.20625s infinite normal forwards running bounce-9587f312-4650-441f-a7d6-c6cb8ccf1c4f;"><path d="M528.98-45.08L528.98 0L515.74 0L515.74-45.08L528.98-45.08" fill="#f1a4bd" stroke="none" stroke-width="none" transform="translate(-346.65997314453125,23.129181900024413)" style="fill: rgb(241, 164, 189); animation-play-state: running; animation-delay: 0s;"></path></g><g class="path" style="transform: matrix(1, 0, 0, 1, 0, 0); transform-origin: 211.37px 0.474184px; animation: 1s linear -0.165s infinite normal forwards running bounce-9587f312-4650-441f-a7d6-c6cb8ccf1c4f;"><path d="M578.87-14.41L578.87-14.41L578.87-14.41Q578.87-11.45 578.01-9.14L578.01-9.14L578.01-9.14Q577.15-6.84 575.66-5.14L575.66-5.14L575.66-5.14Q574.18-3.44 572.15-2.29L572.15-2.29L572.15-2.29Q570.12-1.13 567.79-0.43L567.79-0.43L567.79-0.43Q565.47 0.27 562.93 0.59L562.93 0.59L562.93 0.59Q560.39 0.90 557.89 0.90L557.89 0.90L557.89 0.90Q554.53 0.90 551.95 0.47L551.95 0.47L551.95 0.47Q549.38 0.04 547.03-0.92L547.03-0.92L547.03-0.92Q544.69-1.88 542.36-3.40L542.36-3.40L542.36-3.40Q540.04-4.92 537.19-7.11L537.19-7.11L544.88-13.40L544.88-13.40Q545.94-11.41 547.68-9.79L547.68-9.79L547.68-9.79Q549.41-8.16 551.29-6.99L551.29-6.99L551.29-6.99Q553.16-5.82 554.92-5.20L554.92-5.20L554.92-5.20Q556.68-4.57 557.77-4.57L557.77-4.57L557.77-4.57Q558.67-4.57 559.80-4.63L559.80-4.63L559.80-4.63Q560.94-4.69 562.11-4.86L562.11-4.86L562.11-4.86Q563.28-5.04 564.41-5.39L564.41-5.39L564.41-5.39Q565.55-5.74 566.43-6.35L566.43-6.35L566.43-6.35Q567.30-6.95 567.83-7.87L567.83-7.87L567.83-7.87Q568.36-8.79 568.36-10.08L568.36-10.08L568.36-10.08Q568.36-11.41 567.68-12.40L567.68-12.40L567.68-12.40Q566.99-13.40 565.90-14.14L565.90-14.14L565.90-14.14Q564.80-14.88 563.40-15.39L563.40-15.39L563.40-15.39Q561.99-15.90 560.57-16.29L560.57-16.29L560.57-16.29Q559.14-16.68 557.81-16.97L557.81-16.97L557.81-16.97Q556.48-17.27 555.51-17.54L555.51-17.54L555.51-17.54Q553.71-18.05 551.72-18.57L551.72-18.57L551.72-18.57Q549.73-19.10 547.77-19.79L547.77-19.79L547.77-19.79Q545.82-20.47 544.04-21.41L544.04-21.41L544.04-21.41Q542.27-22.34 540.92-23.65L540.92-23.65L540.92-23.65Q539.57-24.96 538.77-26.74L538.77-26.74L538.77-26.74Q537.97-28.52 537.97-30.90L537.97-30.90L537.97-30.90Q537.97-35.27 539.71-38.22L539.71-38.22L539.71-38.22Q541.45-41.17 544.30-42.95L544.30-42.95L544.30-42.95Q547.15-44.73 550.78-45.47L550.78-45.47L550.78-45.47Q554.41-46.21 558.16-46.21L558.16-46.21L558.16-46.21Q560.74-46.21 563.59-45.68L563.59-45.68L563.59-45.68Q566.45-45.16 569.14-44.12L569.14-44.12L569.14-44.12Q571.84-43.09 574.18-41.60L574.18-41.60L574.18-41.60Q576.52-40.12 578.09-38.20L578.09-38.20L570.39-31.88L570.39-31.88Q569.53-34.22 568.14-35.90L568.14-35.90L568.14-35.90Q566.76-37.58 565.14-38.65L565.14-38.65L565.14-38.65Q563.52-39.73 561.82-40.23L561.82-40.23L561.82-40.23Q560.12-40.74 558.67-40.74L558.67-40.74L558.67-40.74Q557.27-40.74 555.51-40.63L555.51-40.63L555.51-40.63Q553.75-40.51 552.21-39.96L552.21-39.96L552.21-39.96Q550.66-39.41 549.59-38.30L549.59-38.30L549.59-38.30Q548.52-37.19 548.52-35.23L548.52-35.23L548.52-35.23Q548.52-33.83 549.16-32.83L549.16-32.83L549.16-32.83Q549.80-31.84 550.86-31.11L550.86-31.11L550.86-31.11Q551.91-30.39 553.26-29.90L553.26-29.90L553.26-29.90Q554.61-29.41 556.02-29.04L556.02-29.04L556.02-29.04Q557.42-28.67 558.75-28.40L558.75-28.40L558.75-28.40Q560.08-28.13 561.13-27.81L561.13-27.81L561.13-27.81Q562.93-27.30 564.94-26.78L564.94-26.78L564.94-26.78Q566.95-26.25 568.91-25.57L568.91-25.57L568.91-25.57Q570.86-24.88 572.68-23.96L572.68-23.96L572.68-23.96Q574.49-23.05 575.86-21.72L575.86-21.72L575.86-21.72Q577.23-20.39 578.05-18.61L578.05-18.61L578.05-18.61Q578.87-16.84 578.87-14.41" fill="#f1a4bd" stroke="none" stroke-width="none" transform="translate(-346.65997314453125,23.129181900024413)" style="fill: rgb(151, 52, 106); animation-play-state: running; animation-delay: 0s;"></path></g><g class="path" style="transform: matrix(1, 0, 0, 1, 0, 0); transform-origin: 260.92px 0.474184px; animation: 1s linear -0.12375s infinite normal forwards running bounce-9587f312-4650-441f-a7d6-c6cb8ccf1c4f;"><path d="M598.05-21.41L598.05-21.41L598.05-21.41Q600.47-20.86 602.89-20.55L602.89-20.55L602.89-20.55Q605.31-20.23 607.77-20.23L607.77-20.23L607.77-20.23Q610.35-20.23 612.56-20.72L612.56-20.72L612.56-20.72Q614.77-21.21 616.39-22.36L616.39-22.36L616.39-22.36Q618.01-23.52 618.95-25.43L618.95-25.43L618.95-25.43Q619.88-27.34 619.88-30.20L619.88-30.20L619.88-30.20Q619.88-32.50 619.26-34.41L619.26-34.41L619.26-34.41Q618.63-36.33 617.40-37.70L617.40-37.70L617.40-37.70Q616.17-39.06 614.38-39.82L614.38-39.82L614.38-39.82Q612.58-40.59 610.20-40.59L610.20-40.59L610.20-40.59Q607.97-40.59 606.19-39.77L606.19-39.77L606.19-39.77Q604.41-38.95 603.07-37.56L603.07-37.56L603.07-37.56Q601.72-36.17 600.76-34.34L600.76-34.34L600.76-34.34Q599.80-32.50 599.18-30.51L599.18-30.51L599.18-30.51Q598.55-28.52 598.28-26.48L598.28-26.48L598.28-26.48Q598.01-24.45 598.01-22.66L598.01-22.66L598.01-22.66Q598.01-22.34 598.01-22.03L598.01-22.03L598.01-22.03Q598.01-21.72 598.05-21.41zM630.59-30.31L630.59-30.31L630.59-30.31Q630.59-27.54 629.69-25.37L629.69-25.37L629.69-25.37Q628.79-23.20 627.25-21.56L627.25-21.56L627.25-21.56Q625.70-19.92 623.67-18.79L623.67-18.79L623.67-18.79Q621.64-17.66 619.34-16.93L619.34-16.93L619.34-16.93Q617.03-16.21 614.59-15.90L614.59-15.90L614.59-15.90Q612.15-15.59 609.84-15.59L609.84-15.59L609.84-15.59Q606.91-15.59 604.06-16.00L604.06-16.00L604.06-16.00Q601.21-16.41 598.44-17.30L598.44-17.30L598.44-17.30Q598.87-14.73 599.80-12.40L599.80-12.40L599.80-12.40Q600.74-10.08 602.30-8.34L602.30-8.34L602.30-8.34Q603.87-6.60 606.15-5.59L606.15-5.59L606.15-5.59Q608.44-4.57 611.56-4.57L611.56-4.57L611.56-4.57Q613.63-4.57 615.51-5.20L615.51-5.20L615.51-5.20Q617.38-5.82 618.95-6.95L618.95-6.95L618.95-6.95Q620.51-8.09 621.70-9.65L621.70-9.65L621.70-9.65Q622.89-11.21 623.63-13.13L623.63-13.13L629.34-11.02L629.34-11.02Q628.05-7.93 625.80-5.68L625.80-5.68L625.80-5.68Q623.55-3.44 620.72-1.97L620.72-1.97L620.72-1.97Q617.89-0.51 614.71 0.20L614.71 0.20L614.71 0.20Q611.52 0.90 608.40 0.90L608.40 0.90L608.40 0.90Q603.24 0.90 598.87-0.84L598.87-0.84L598.87-0.84Q594.49-2.58 591.33-5.70L591.33-5.70L591.33-5.70Q588.16-8.83 586.37-13.16L586.37-13.16L586.37-13.16Q584.57-17.50 584.57-22.66L584.57-22.66L584.57-22.66Q584.57-27.81 586.37-32.15L586.37-32.15L586.37-32.15Q588.16-36.48 591.33-39.61L591.33-39.61L591.33-39.61Q594.49-42.73 598.87-44.47L598.87-44.47L598.87-44.47Q603.24-46.21 608.40-46.21L608.40-46.21L608.40-46.21Q610.90-46.21 613.52-45.86L613.52-45.86L613.52-45.86Q616.13-45.51 618.59-44.75L618.59-44.75L618.59-44.75Q621.05-43.98 623.24-42.77L623.24-42.77L623.24-42.77Q625.43-41.56 627.05-39.79L627.05-39.79L627.05-39.79Q628.67-38.01 629.63-35.66L629.63-35.66L629.63-35.66Q630.59-33.32 630.59-30.31" fill="#f1a4bd" stroke="none" stroke-width="none" transform="translate(-346.65997314453125,23.129181900024413)" style="fill: rgb(241, 164, 189); animation-play-state: running; animation-delay: 0s;"></path></g><g class="path" style="transform: matrix(1, 0, 0, 1, 0, 0); transform-origin: 297.87px 17.2892px; animation: 1s linear -0.0825s infinite normal forwards running bounce-9587f312-4650-441f-a7d6-c6cb8ccf1c4f;"><path d="M651.64-5.86L651.64-5.86L651.64-5.86Q651.64-4.38 651.09-3.07L651.09-3.07L651.09-3.07Q650.55-1.76 649.57-0.80L649.57-0.80L649.57-0.80Q648.59 0.16 647.30 0.72L647.30 0.72L647.30 0.72Q646.02 1.29 644.53 1.29L644.53 1.29L644.53 1.29Q643.05 1.29 641.76 0.72L641.76 0.72L641.76 0.72Q640.47 0.16 639.49-0.80L639.49-0.80L639.49-0.80Q638.52-1.76 637.97-3.07L637.97-3.07L637.97-3.07Q637.42-4.38 637.42-5.86L637.42-5.86L637.42-5.86Q637.42-7.30 637.97-8.61L637.97-8.61L637.97-8.61Q638.52-9.92 639.49-10.88L639.49-10.88L639.49-10.88Q640.47-11.84 641.76-12.40L641.76-12.40L641.76-12.40Q643.05-12.97 644.53-12.97L644.53-12.97L644.53-12.97Q646.02-12.97 647.30-12.40L647.30-12.40L647.30-12.40Q648.59-11.84 649.57-10.88L649.57-10.88L649.57-10.88Q650.55-9.92 651.09-8.61L651.09-8.61L651.09-8.61Q651.64-7.30 651.64-5.86" fill="#f1a4bd" stroke="none" stroke-width="none" transform="translate(-346.65997314453125,23.129181900024413)" style="fill: rgb(151, 52, 106); animation-play-state: running; animation-delay: 0s;"></path></g><g class="path" style="transform: matrix(1, 0, 0, 1, 0, 0); transform-origin: 320.29px 17.2892px; animation: 1s linear -0.04125s infinite normal forwards running bounce-9587f312-4650-441f-a7d6-c6cb8ccf1c4f;"><path d="M674.06-5.86L674.06-5.86L674.06-5.86Q674.06-4.38 673.52-3.07L673.52-3.07L673.52-3.07Q672.97-1.76 671.99-0.80L671.99-0.80L671.99-0.80Q671.02 0.16 669.73 0.72L669.73 0.72L669.73 0.72Q668.44 1.29 666.95 1.29L666.95 1.29L666.95 1.29Q665.47 1.29 664.18 0.72L664.18 0.72L664.18 0.72Q662.89 0.16 661.91-0.80L661.91-0.80L661.91-0.80Q660.94-1.76 660.39-3.07L660.39-3.07L660.39-3.07Q659.84-4.38 659.84-5.86L659.84-5.86L659.84-5.86Q659.84-7.30 660.39-8.61L660.39-8.61L660.39-8.61Q660.94-9.92 661.91-10.88L661.91-10.88L661.91-10.88Q662.89-11.84 664.18-12.40L664.18-12.40L664.18-12.40Q665.47-12.97 666.95-12.97L666.95-12.97L666.95-12.97Q668.44-12.97 669.73-12.40L669.73-12.40L669.73-12.40Q671.02-11.84 671.99-10.88L671.99-10.88L671.99-10.88Q672.97-9.92 673.52-8.61L673.52-8.61L673.52-8.61Q674.06-7.30 674.06-5.86" fill="#f1a4bd" stroke="none" stroke-width="none" transform="translate(-346.65997314453125,23.129181900024413)" style="fill: rgb(241, 164, 189); animation-play-state: running; animation-delay: 0s;"></path></g><g class="path" style="transform: matrix(1, 0, 0, 1, 0, 0); transform-origin: 342.715px 17.2892px; animation: 1s linear 0s infinite normal forwards running bounce-9587f312-4650-441f-a7d6-c6cb8ccf1c4f;"><path d="M696.48-5.86L696.48-5.86L696.48-5.86Q696.48-4.38 695.94-3.07L695.94-3.07L695.94-3.07Q695.39-1.76 694.41-0.80L694.41-0.80L694.41-0.80Q693.44 0.16 692.15 0.72L692.15 0.72L692.15 0.72Q690.86 1.29 689.38 1.29L689.38 1.29L689.38 1.29Q687.89 1.29 686.60 0.72L686.60 0.72L686.60 0.72Q685.31 0.16 684.34-0.80L684.34-0.80L684.34-0.80Q683.36-1.76 682.81-3.07L682.81-3.07L682.81-3.07Q682.27-4.38 682.27-5.86L682.27-5.86L682.27-5.86Q682.27-7.30 682.81-8.61L682.81-8.61L682.81-8.61Q683.36-9.92 684.34-10.88L684.34-10.88L684.34-10.88Q685.31-11.84 686.60-12.40L686.60-12.40L686.60-12.40Q687.89-12.97 689.38-12.97L689.38-12.97L689.38-12.97Q690.86-12.97 692.15-12.40L692.15-12.40L692.15-12.40Q693.44-11.84 694.41-10.88L694.41-10.88L694.41-10.88Q695.39-9.92 695.94-8.61L695.94-8.61L695.94-8.61Q696.48-7.30 696.48-5.86" fill="#f1a4bd" stroke="none" stroke-width="none" transform="translate(-346.65997314453125,23.129181900024413)" style="fill: rgb(151, 52, 106); animation-play-state: running; animation-delay: 0s;"></path></g></g>
</g>
</g>
<style id="bounce-9587f312-4650-441f-a7d6-c6cb8ccf1c4f" data-anikit="">@keyframes bounce-9587f312-4650-441f-a7d6-c6cb8ccf1c4f
{
  0% {
    animation-timing-function: cubic-bezier(0.1361,0.2514,0.2175,0.8786);
    transform: translate(0,0px) scaleY(1);
  }
  37% {
    animation-timing-function: cubic-bezier(0.7674,0.1844,0.8382,0.7157);
    transform: translate(0,-39.96px) scaleY(1);
  }
  72% {
    animation-timing-function: cubic-bezier(0.1118,0.2149,0.2172,0.941);
    transform: translate(0,0px) scaleY(1);
  }
  87% {
    animation-timing-function: cubic-bezier(0.7494,0.2259,0.8209,0.6963);
    transform: translate(0,19.900000000000002px) scaleY(0.602);
  }
  100% {
    transform: translate(0,0px) scaleY(1);
  }
}</style></svg>