<svg width="30" height="30" viewBox="0 0 30 30" fill="none" xmlns="http://www.w3.org/2000/svg">
<path d="M19.9554 15.0021C19.1633 15.0021 18.418 14.3994 18.0149 13.4352L15.001 6.29695L11.9919 13.4352C11.5841 14.4061 10.8388 15.0088 10.0467 15.0088C9.83574 15.0088 9.62481 14.9686 9.42327 14.8815L3.00179 12.2566V24.1759C3.00179 25.1603 3.47052 26.0174 4.1361 26.2518L14.2698 29.8744C14.7479 30.0419 15.2495 30.0419 15.7229 29.8744L25.866 26.2518C26.5316 26.0107 27.0003 25.1536 27.0003 24.1759V12.2566L20.5788 14.8748C20.3773 14.9619 20.1663 15.0021 19.9554 15.0021ZM29.9204 7.48888L27.5065 0.605138C27.3612 0.18997 27.0472 -0.0510949 26.7237 0.00917137L15.001 2.14528L19.2992 12.3303C19.4773 12.7521 19.8335 12.953 20.1663 12.8191L29.4423 9.03572C29.9063 8.84152 30.1313 8.10494 29.9204 7.48888ZM2.49558 0.605138L0.0816664 7.48888C-0.133945 8.10494 0.095728 8.84152 0.555074 9.02902L9.83105 12.8124C10.1638 12.9463 10.5201 12.7454 10.6982 12.3236L15.001 2.14528L3.27365 0.00917137C2.95024 -0.0443986 2.64088 0.18997 2.49558 0.605138Z" fill="#A37F6A"/>
</svg>
