<svg width="18" height="18" viewBox="0 0 18 18" fill="none" xmlns="http://www.w3.org/2000/svg">
<g clip-path="url(#clip0_40_128)">
<path d="M6.61956 16.1812C7.02577 16.1812 7.35507 15.8519 7.35507 15.4457C7.35507 15.0395 7.02577 14.7102 6.61956 14.7102C6.21335 14.7102 5.88406 15.0395 5.88406 15.4457C5.88406 15.8519 6.21335 16.1812 6.61956 16.1812Z" stroke="black" stroke-width="1.5" stroke-linecap="round" stroke-linejoin="round"/>
<path d="M14.7101 16.1812C15.1164 16.1812 15.4457 15.8519 15.4457 15.4457C15.4457 15.0395 15.1164 14.7102 14.7101 14.7102C14.3039 14.7102 13.9746 15.0395 13.9746 15.4457C13.9746 15.8519 14.3039 16.1812 14.7101 16.1812Z" stroke="black" stroke-width="1.5" stroke-linecap="round" stroke-linejoin="round"/>
<path d="M0.735508 0.735474H3.67754L5.6487 10.5839C5.71595 10.9225 5.90017 11.2267 6.1691 11.4432C6.43803 11.6597 6.77454 11.7747 7.11971 11.7681H14.2688C14.614 11.7747 14.9505 11.6597 15.2195 11.4432C15.4884 11.2267 15.6726 10.9225 15.7399 10.5839L16.9167 4.41301H4.41304" stroke="black" stroke-width="1.5" stroke-linecap="round" stroke-linejoin="round"/>
</g>
<defs>
<clipPath id="clip0_40_128">
<rect width="17.6522" height="17.6522" fill="white"/>
</clipPath>
</defs>
</svg>
