<svg width="30" height="30" viewBox="0 0 30 30" fill="none" xmlns="http://www.w3.org/2000/svg">
<path d="M17.2969 10.6406L18.4688 1.92187C17.3438 1.64062 16.2187 0.9375 15 0.9375C13.7813 0.9375 12.6562 1.64062 11.4844 1.96875C10.3125 2.25 9 2.20313 7.96875 2.8125C6.9375 3.42187 6.28125 4.59375 5.4375 5.4375C4.59375 6.28125 3.42187 6.9375 2.8125 7.96875C2.20313 9 2.25 10.3125 1.92187 11.4844C1.64062 12.6562 0.9375 13.7813 0.9375 15C0.9375 16.2187 1.64062 17.3438 1.96875 18.5156C2.25 19.6875 2.20313 21 2.8125 22.0312C3.42187 23.0625 4.59375 23.7188 5.4375 24.5625C6.28125 25.4063 6.89063 26.5781 7.96875 27.1875C9 27.7969 10.3125 27.75 11.4844 28.0781C12.6562 28.3594 13.7813 29.0625 15 29.0625C16.2187 29.0625 17.3438 28.3594 18.5156 28.0312C19.6875 27.7031 21 27.75 22.0312 27.1406C23.0625 26.5313 23.7188 25.3594 24.5625 24.5156C25.4063 23.6719 26.5781 23.0625 27.1875 21.9844C27.7969 20.9531 27.75 19.6406 28.0781 18.4688C28.3594 17.3438 29.0625 16.2187 29.0625 15C29.0625 13.7813 28.0781 11.2031 28.0781 11.2031L17.2969 10.6406Z" fill="#DDA85F"/>
<path d="M27.8438 10.5C27.375 10.6406 26.7188 10.5938 26.0156 10.3125C25.0313 9.9375 24.4219 9.14063 24.2344 8.20313C23.7656 8.34375 22.6406 8.20313 21.8906 7.73438C20.7656 7.03125 20.5313 5.0625 20.5313 5.0625C19.2656 4.6875 18.3281 3.1875 18.4688 1.92188C17.4375 1.64062 16.125 1.6875 15 1.6875C13.875 1.6875 12.8438 2.34375 11.8125 2.625C10.7344 2.90625 9.51562 2.85938 8.57812 3.42188C7.64062 3.98438 7.03125 5.0625 6.28125 5.8125C5.48437 6.60938 4.40625 7.17187 3.89063 8.10938C3.32813 9.04688 3.375 10.2656 3.09375 11.3438C2.8125 12.375 2.15625 13.4063 2.15625 14.5313C2.15625 15.6563 2.8125 16.6875 3.09375 17.7188C3.375 18.7969 3.32813 20.0156 3.89063 20.9531C4.45313 21.8906 5.53125 22.5 6.28125 23.25C7.07812 24.0469 7.64062 25.125 8.57812 25.6406C9.51562 26.2031 10.7344 26.1563 11.8125 26.4375C12.8438 26.7188 13.875 27.375 15 27.375C16.125 27.375 17.1563 26.7188 18.1875 26.4375C19.2656 26.1563 20.4844 26.2031 21.4219 25.6406C22.3594 25.0781 22.9688 24 23.7188 23.25C24.5156 22.4531 25.5938 21.8906 26.1094 20.9531C26.6719 20.0156 26.625 18.7969 26.9063 17.7188C27.1875 16.6875 28.3125 15.8438 28.4531 14.7188C28.8281 12.8906 27.8906 10.8281 27.8438 10.5" fill="#F2CB7D"/>
<path d="M23.4844 5.0625L22.8281 5.71875L22.2188 5.0625L22.8281 4.45312L23.4844 5.0625ZM26.1563 8.34375L25.875 8.67188L25.5469 8.34375L25.875 8.01563L26.1563 8.34375ZM23.8125 6.1875L23.4844 6.51562L23.1563 6.1875L23.4844 5.85937L23.8125 6.1875ZM20.9062 3.32812L20.5781 3.65625L20.25 3.32812L20.5781 3L20.9062 3.32812ZM26.8125 9.51562L26.4844 9.84375L26.1563 9.51562L26.4844 9.1875L26.8125 9.51562ZM27.0938 8.34375L26.7656 8.67188L26.4375 8.34375L26.7656 8.01563L27.0938 8.34375Z" fill="#DDA85F"/>
<path d="M5.53104 9.65625C5.06229 10.4531 5.76541 11.9063 6.70291 12.3281C8.06229 12.8906 8.85916 12.9844 9.70291 11.5313C9.98416 11.0156 10.3592 9.65625 10.2185 9.32813C10.031 8.85938 9.23416 7.92188 8.71854 7.92188C7.26541 7.96875 5.85916 9.09375 5.53104 9.65625" fill="#6D4934"/>
<path d="M5.76542 9.65625C5.43729 10.2188 6.28104 11.9063 7.40604 11.7656C8.95292 11.5781 8.81229 8.39062 8.15604 8.39062C7.03104 8.39062 5.99979 9.23438 5.76542 9.65625" fill="#A37F6A"/>
<path d="M21.1875 18.3281C21.8437 18.1406 22.3125 16.9688 22.0312 16.2656C21.6094 15.1875 21.1875 14.7188 19.9687 15.0469C19.5469 15.1875 18.5625 15.7031 18.4687 15.9375C18.3281 16.3125 18.2344 17.25 18.5156 17.5313C19.3125 18.3281 20.7187 18.4688 21.1875 18.3281Z" fill="#6D4934"/>
<path d="M20.5314 17.2031C21.047 17.0625 21.8439 15.4688 21.0002 15.375C19.547 15.1406 18.422 15.8438 18.5627 16.6406C18.7033 17.4375 20.1564 17.2969 20.5314 17.2031" fill="#A37F6A"/>
<path d="M11.6718 20.8594C11.5312 20.2969 10.4999 19.875 9.84365 20.1562C8.90615 20.5312 8.48428 20.8594 8.8124 21.9375C8.90615 22.3125 9.3749 23.1562 9.60928 23.2031C9.9374 23.3437 10.7343 23.3906 10.9687 23.1563C11.6718 22.5 11.7655 21.2812 11.6718 20.8594Z" fill="#6D4934"/>
<path d="M10.8749 20.4374C10.7811 20.0155 8.81239 20.6249 8.99989 21.3749C9.37489 22.6405 9.37489 22.828 9.74989 22.7811C10.453 22.5936 10.9218 20.7655 10.8749 20.4374Z" fill="#A37F6A"/>
<path d="M23.9533 11.953C23.3908 12.0936 22.9689 13.1249 23.2502 13.7811C23.6252 14.7186 24.5158 14.8592 25.5002 14.3436C26.3439 13.9217 26.3908 12.4217 26.1564 12.1405C25.4533 11.4374 24.3752 11.8592 23.9533 11.953" fill="#6D4934"/>
<path d="M23.719 12.4687C23.4377 12.7969 23.2033 14.1094 23.9065 13.9219C25.1721 13.5469 26.0627 12.2812 25.5002 12.0937C24.7971 11.8594 24.0471 12.0937 23.719 12.4687" fill="#A37F6A"/>
<path d="M10.6592 7.5525L11.5873 6.62437L12.5154 7.5525L11.5873 8.48062L10.6592 7.5525Z" fill="#6D4934"/>
<path d="M6.89355 15.6952L7.82121 14.767L8.74934 15.6947L7.82168 16.6228L6.89355 15.6952ZM16.2648 21.0052L17.1929 20.077L18.1211 21.0052L17.1929 21.9333L16.2648 21.0052ZM15.0179 18.4167L16.2775 17.1572L17.537 18.4167L16.2775 19.6763L15.0179 18.4167ZM11.5764 4.60641L12.8359 3.34688L14.0954 4.60641L12.8359 5.86594L11.5764 4.60641Z" fill="#DDA85F"/>
<path d="M19.276 21.7252L20.2041 20.797L21.1322 21.7252L20.2041 22.6533L19.276 21.7252ZM23.0044 16.507L23.9325 15.5789L24.8606 16.507L23.9325 17.4352L23.0044 16.507ZM19.5994 11.5486L20.0635 11.0845L20.5275 11.5486L20.0635 12.0127L19.5994 11.5486ZM6.43408 17.9372L6.89814 17.4731L7.36221 17.9372L6.89814 18.4013L6.43408 17.9372Z" fill="#6D4934"/>
</svg>
