<svg width="1304" height="375" viewBox="0 0 1304 375" fill="none" xmlns="http://www.w3.org/2000/svg">
<g clip-path="url(#clip0_18_76)">
<path d="M204.417 234.334C207.132 232.84 209.994 236.846 209.994 236.846C209.994 236.846 214.873 234.131 215.869 237.248C217.234 241.52 207.481 245 207.481 245C207.481 245 199.947 236.794 204.417 234.334Z" fill="white"/>
<path d="M211.526 240.334C214.45 238.84 217.532 242.846 217.532 242.846C217.532 242.846 222.786 240.131 223.859 243.248C225.329 247.52 214.826 251 214.826 251C214.826 251 206.712 242.794 211.526 240.334Z" fill="white"/>
<path d="M196.526 240.334C199.45 238.84 202.532 242.846 202.532 242.846C202.532 242.846 207.786 240.131 208.859 243.248C210.329 247.52 199.826 251 199.826 251C199.826 251 191.712 242.794 196.526 240.334Z" fill="white"/>
<path d="M95.4171 121.334C98.1317 119.84 100.994 123.846 100.994 123.846C100.994 123.846 105.873 121.131 106.869 124.248C108.234 128.52 98.4815 132 98.4815 132C98.4815 132 90.9468 123.794 95.4171 121.334Z" fill="white"/>
<path d="M102.526 127.334C105.45 125.84 108.532 129.846 108.532 129.846C108.532 129.846 113.786 127.131 114.859 130.248C116.329 134.52 105.826 138 105.826 138C105.826 138 97.7119 129.794 102.526 127.334Z" fill="white"/>
<path d="M87.5261 127.334C90.4496 125.84 93.5316 129.846 93.5316 129.846C93.5316 129.846 98.7865 127.131 99.8589 130.248C101.329 134.52 90.8262 138 90.8262 138C90.8262 138 82.7119 129.794 87.5261 127.334Z" fill="white"/>
<path d="M950.417 299.334C953.132 297.84 955.994 301.846 955.994 301.846C955.994 301.846 960.873 299.131 961.869 302.248C963.234 306.52 953.481 310 953.481 310C953.481 310 945.947 301.794 950.417 299.334Z" fill="white"/>
<path d="M957.526 305.334C960.45 303.84 963.532 307.846 963.532 307.846C963.532 307.846 968.786 305.131 969.859 308.248C971.329 312.52 960.826 316 960.826 316C960.826 316 952.712 307.794 957.526 305.334Z" fill="white"/>
<path d="M942.526 305.334C945.45 303.84 948.532 307.846 948.532 307.846C948.532 307.846 953.786 305.131 954.859 308.248C956.329 312.52 945.826 316 945.826 316C945.826 316 937.712 307.794 942.526 305.334Z" fill="white"/>
<path d="M1225.42 0.333788C1228.13 -1.16032 1230.99 2.8458 1230.99 2.8458C1230.99 2.8458 1235.87 0.131388 1236.87 3.24777C1238.23 7.5204 1228.48 11 1228.48 11C1228.48 11 1220.95 2.79416 1225.42 0.333788Z" fill="white"/>
<path d="M1232.53 6.33379C1235.45 4.83968 1238.53 8.8458 1238.53 8.8458C1238.53 8.8458 1243.79 6.13139 1244.86 9.24777C1246.33 13.5204 1235.83 17 1235.83 17C1235.83 17 1227.71 8.79416 1232.53 6.33379Z" fill="white"/>
<path d="M1217.53 6.33379C1220.45 4.83968 1223.53 8.8458 1223.53 8.8458C1223.53 8.8458 1228.79 6.13139 1229.86 9.24777C1231.33 13.5204 1220.83 17 1220.83 17C1220.83 17 1212.71 8.79416 1217.53 6.33379Z" fill="white"/>
<path d="M1224.42 295.334C1227.13 293.84 1229.99 297.846 1229.99 297.846C1229.99 297.846 1234.87 295.131 1235.87 298.248C1237.23 302.52 1227.48 306 1227.48 306C1227.48 306 1219.95 297.794 1224.42 295.334Z" fill="white"/>
<path d="M1231.53 301.334C1234.45 299.84 1237.53 303.846 1237.53 303.846C1237.53 303.846 1242.79 301.131 1243.86 304.248C1245.33 308.52 1234.83 312 1234.83 312C1234.83 312 1226.71 303.794 1231.53 301.334Z" fill="white"/>
<path d="M1216.53 301.334C1219.45 299.84 1222.53 303.846 1222.53 303.846C1222.53 303.846 1227.79 301.131 1228.86 304.248C1230.33 308.52 1219.83 312 1219.83 312C1219.83 312 1211.71 303.794 1216.53 301.334Z" fill="white"/>
<path d="M409.417 327.334C412.132 325.84 414.994 329.846 414.994 329.846C414.994 329.846 419.873 327.131 420.869 330.248C422.234 334.52 412.481 338 412.481 338C412.481 338 404.947 329.794 409.417 327.334Z" fill="white"/>
<path d="M416.526 333.334C419.45 331.84 422.532 335.846 422.532 335.846C422.532 335.846 427.786 333.131 428.859 336.248C430.329 340.52 419.826 344 419.826 344C419.826 344 411.712 335.794 416.526 333.334Z" fill="white"/>
<path d="M401.526 333.334C404.45 331.84 407.532 335.846 407.532 335.846C407.532 335.846 412.786 333.131 413.859 336.248C415.329 340.52 404.826 344 404.826 344C404.826 344 396.712 335.794 401.526 333.334Z" fill="white"/>
<path d="M88 47C89.1046 47 90 46.1046 90 45C90 43.8954 89.1046 43 88 43C86.8954 43 86 43.8954 86 45C86 46.1046 86.8954 47 88 47Z" fill="white"/>
<path d="M823 325C824.105 325 825 324.105 825 323C825 321.895 824.105 321 823 321C821.895 321 821 321.895 821 323C821 324.105 821.895 325 823 325Z" fill="white"/>
<path d="M3 251C4.65685 251 6 249.657 6 248C6 246.343 4.65685 245 3 245C1.34315 245 0 246.343 0 248C0 249.657 1.34315 251 3 251Z" fill="white"/>
<path d="M83 329C84.6569 329 86 327.657 86 326C86 324.343 84.6569 323 83 323C81.3431 323 80 324.343 80 326C80 327.657 81.3431 329 83 329Z" fill="white"/>
<path d="M244 19C246.761 19 249 16.7614 249 14C249 11.2386 246.761 9 244 9C241.239 9 239 11.2386 239 14C239 16.7614 241.239 19 244 19Z" fill="white"/>
<path d="M1155 167C1157.76 167 1160 164.761 1160 162C1160 159.239 1157.76 157 1155 157C1152.24 157 1150 159.239 1150 162C1150 164.761 1152.24 167 1155 167Z" fill="white"/>
<path d="M984 21C986.761 21 989 18.7614 989 16C989 13.2386 986.761 11 984 11C981.239 11 979 13.2386 979 16C979 18.7614 981.239 21 984 21Z" fill="white"/>
<path d="M1299 375C1301.76 375 1304 372.761 1304 370C1304 367.239 1301.76 365 1299 365C1296.24 365 1294 367.239 1294 370C1294 372.761 1296.24 375 1299 375Z" fill="white"/>
<path d="M626 29C628.761 29 631 26.7614 631 24C631 21.2386 628.761 19 626 19C623.239 19 621 21.2386 621 24C621 26.7614 623.239 29 626 29Z" fill="white"/>
<path d="M154.877 302.996C149.071 342.508 259.247 338.113 223.942 320.567C170.445 293.981 214.191 359.783 256.778 358.333" stroke="white" stroke-linecap="round" stroke-linejoin="round" stroke-dasharray="3 3"/>
<path d="M155.901 296.024L160.786 304.754L148.711 302.98L155.901 296.024Z" fill="white"/>
<path d="M538.926 204.386C530.881 259.144 715.571 257.755 655.574 231.814C564.663 192.506 640.895 285.989 712.296 285.799" stroke="white" stroke-linecap="round" stroke-linejoin="round" stroke-dasharray="3 3"/>
<path d="M540.345 194.725L548.918 207.088L528.58 204.1L540.345 194.725Z" fill="white"/>
</g>
<defs>
<clipPath id="clip0_18_76">
<rect width="1304" height="375" fill="white"/>
</clipPath>
</defs>
</svg>
