<svg width="30" height="30" viewBox="0 0 30 30" fill="none" xmlns="http://www.w3.org/2000/svg">
<path d="M21.25 2.5H8.75C5.29822 2.5 2.5 5.29822 2.5 8.75V21.25C2.5 24.7018 5.29822 27.5 8.75 27.5H21.25C24.7018 27.5 27.5 24.7018 27.5 21.25V8.75C27.5 5.29822 24.7018 2.5 21.25 2.5Z" stroke="black" stroke-width="2" stroke-linecap="round" stroke-linejoin="round"/>
<path d="M20.0001 14.2123C20.1544 15.2526 19.9767 16.315 19.4923 17.2485C19.0079 18.182 18.2416 18.939 17.3022 19.4119C16.3628 19.8847 15.2982 20.0493 14.2599 19.8822C13.2215 19.7151 12.2623 19.2249 11.5187 18.4812C10.775 17.7376 10.2848 16.7784 10.1177 15.74C9.95063 14.7017 10.1152 13.6371 10.588 12.6977C11.0609 11.7583 11.8179 10.9919 12.7514 10.5076C13.6849 10.0232 14.7473 9.8455 15.7876 9.99977C16.8488 10.1571 17.8312 10.6516 18.5897 11.4101C19.3483 12.1687 19.8428 13.1511 20.0001 14.2123Z" stroke="black" stroke-width="2" stroke-linecap="round" stroke-linejoin="round"/>
<path d="M21.875 8.125H21.8875" stroke="black" stroke-width="2" stroke-linecap="round" stroke-linejoin="round"/>
</svg>
