<svg width="8" height="8" viewBox="0 0 8 8" fill="none" xmlns="http://www.w3.org/2000/svg">
<path d="M3.5507 0.555321C3.70038 0.094666 4.35208 0.0946672 4.50176 0.555322L5.04243 2.21934C5.10937 2.42536 5.30135 2.56484 5.51796 2.56484H7.26762C7.75198 2.56484 7.95337 3.18464 7.56151 3.46934L6.14601 4.49777C5.97076 4.62509 5.89743 4.85077 5.96437 5.05678L6.50504 6.72081C6.65472 7.18146 6.12748 7.56452 5.73562 7.27982L4.32012 6.2514C4.14488 6.12408 3.90758 6.12408 3.73234 6.2514L2.31683 7.27982C1.92498 7.56452 1.39774 7.18146 1.54741 6.72081L2.08809 5.05678C2.15502 4.85077 2.0817 4.62509 1.90645 4.49777L0.49095 3.46934C0.0990927 3.18464 0.300481 2.56484 0.784843 2.56484H2.5345C2.75111 2.56484 2.94309 2.42536 3.01003 2.21934L3.5507 0.555321Z" fill="white"/>
</svg>

