<svg width="24" height="24" viewBox="0 0 24 24" fill="none" xmlns="http://www.w3.org/2000/svg">
<path d="M11.1808 1.17038C11.5789 0.601648 12.4211 0.601649 12.8192 1.17038L14.7572 3.93905C14.9802 4.25753 15.3675 4.41795 15.7503 4.35038L19.0784 3.76301C19.7621 3.64236 20.3576 4.23794 20.237 4.9216L19.6496 8.24971C19.5821 8.63254 19.7425 9.01983 20.0609 9.24276L22.8296 11.1808C23.3984 11.5789 23.3984 12.4211 22.8296 12.8192L20.0609 14.7572C19.7425 14.9802 19.5821 15.3675 19.6496 15.7503L20.237 19.0784C20.3576 19.7621 19.7621 20.3576 19.0784 20.237L15.7503 19.6496C15.3675 19.5821 14.9802 19.7425 14.7572 20.0609L12.8192 22.8296C12.4211 23.3984 11.5789 23.3984 11.1808 22.8296L9.24276 20.0609C9.01983 19.7425 8.63254 19.5821 8.24971 19.6496L4.92159 20.237C4.23794 20.3576 3.64236 19.7621 3.76301 19.0784L4.35038 15.7503C4.41795 15.3675 4.25753 14.9802 3.93905 14.7572L1.17038 12.8192C0.601648 12.4211 0.601649 11.5789 1.17038 11.1808L3.93905 9.24276C4.25753 9.01983 4.41795 8.63254 4.35038 8.24971L3.76301 4.92159C3.64236 4.23794 4.23794 3.64236 4.9216 3.76301L8.24972 4.35038C8.63254 4.41795 9.01983 4.25753 9.24276 3.93905L11.1808 1.17038Z" fill="#F1A4BD"/>
<path d="M9.792 15.892C9.68 16.1 9.524 16.204 9.324 16.204C9.204 16.204 9.096 16.16 9 16.072C8.912 15.984 8.868 15.872 8.868 15.736C8.868 15.624 8.9 15.516 8.964 15.412L13.452 7.648C13.572 7.44 13.732 7.336 13.932 7.336C14.052 7.336 14.156 7.38 14.244 7.468C14.34 7.556 14.388 7.668 14.388 7.804C14.388 7.916 14.356 8.024 14.292 8.128L9.792 15.892ZM8.676 12.604C8.028 12.604 7.52 12.384 7.152 11.944C6.784 11.504 6.6 10.86 6.6 10.012C6.6 9.164 6.784 8.524 7.152 8.092C7.52 7.652 8.028 7.432 8.676 7.432C9.332 7.432 9.844 7.652 10.212 8.092C10.58 8.524 10.764 9.164 10.764 10.012C10.764 10.868 10.58 11.516 10.212 11.956C9.844 12.388 9.332 12.604 8.676 12.604ZM8.676 11.788C9.028 11.788 9.288 11.648 9.456 11.368C9.624 11.08 9.708 10.628 9.708 10.012C9.708 9.404 9.624 8.96 9.456 8.68C9.288 8.4 9.028 8.26 8.676 8.26C8.324 8.26 8.064 8.4 7.896 8.68C7.736 8.952 7.656 9.396 7.656 10.012C7.656 10.628 7.736 11.08 7.896 11.368C8.064 11.648 8.324 11.788 8.676 11.788ZM14.568 16.084C13.912 16.084 13.4 15.868 13.032 15.436C12.664 14.996 12.48 14.348 12.48 13.492C12.48 12.644 12.664 12.004 13.032 11.572C13.4 11.132 13.912 10.912 14.568 10.912C15.216 10.912 15.724 11.132 16.092 11.572C16.468 12.004 16.656 12.644 16.656 13.492C16.656 14.34 16.472 14.984 16.104 15.424C15.736 15.864 15.224 16.084 14.568 16.084ZM14.568 15.268C14.92 15.268 15.176 15.128 15.336 14.848C15.504 14.56 15.588 14.108 15.588 13.492C15.588 12.884 15.504 12.44 15.336 12.16C15.168 11.872 14.912 11.728 14.568 11.728C14.216 11.728 13.956 11.868 13.788 12.148C13.62 12.428 13.536 12.876 13.536 13.492C13.536 14.108 13.62 14.56 13.788 14.848C13.956 15.128 14.216 15.268 14.568 15.268Z" fill="white"/>
</svg>
