<svg width="30" height="30" viewBox="0 0 30 30" fill="none" xmlns="http://www.w3.org/2000/svg">
<path d="M28.75 3.74975C27.553 4.5941 26.2276 5.23989 24.825 5.66225C24.0722 4.79664 23.0717 4.18312 21.9588 3.90466C20.8459 3.6262 19.6744 3.69625 18.6026 4.10532C17.5308 4.51439 16.6106 5.24275 15.9662 6.1919C15.3219 7.14104 14.9846 8.26517 15 9.41225V10.6623C12.8033 10.7192 10.6266 10.232 8.66376 9.24406C6.70093 8.2561 5.0129 6.79805 3.75 4.99975C3.75 4.99975 -1.25 16.2498 10 21.2498C7.42566 22.9972 4.35895 23.8734 1.25 23.7498C12.5 29.9998 26.25 23.7498 26.25 9.37475C26.2488 9.02657 26.2154 8.67925 26.15 8.33725C27.4258 7.07912 28.326 5.49064 28.75 3.74975V3.74975Z" stroke="black" stroke-width="2" stroke-linecap="round" stroke-linejoin="round"/>
</svg>
